<?xml version="1.0" encoding="utf-8"?><svg viewBox="0 0 73 74" xmlns="http://www.w3.org/2000/svg" xmlns:xlink="http://www.w3.org/1999/xlink"><style>:root>svg{display:none}:root>svg:target{display:block}</style><svg fill="none" viewBox="0 0 73 73" id="facebook" xmlns="http://www.w3.org/2000/svg"><g clip-path="url(#aa)"><path d="M73 36.303C73 16.251 56.66 0 36.5 0S0 16.251 0 36.303c0 18.124 13.345 33.141 30.797 35.864v-25.37h-9.268V36.303h9.268v-7.998c0-9.097 5.446-14.124 13.787-14.124 3.992 0 8.17.709 8.17.709v8.934h-4.605c-4.534 0-5.946 2.8-5.946 5.672v6.807h10.123l-1.618 10.494h-8.505v25.37C59.655 69.444 73 54.427 73 36.303Z" fill="#fff"/></g><defs><clipPath id="aa"><path fill="#fff" d="M0 0h73v72.607H0z"/></clipPath></defs></svg><svg viewBox="0 0 256 256" id="steam" xmlns="http://www.w3.org/2000/svg"><path d="M25 3C13.59 3 4.21 11.68 3.11 22.8l11.19 5.73c1.13-.95 2.6-1.53 4.2-1.53h.05c.39-.6.84-1.35 1.31-2.13.98-1.61 2.08-3.43 3.16-4.83.24-4.47 3.95-8.04 8.48-8.04 4.69 0 8.5 3.81 8.5 8.5 0 4.53-3.569 8.24-8.039 8.48-1.4 1.08-3.21 2.18-4.83 3.15-.78.48-1.531.93-2.131 1.32v.05a6.5 6.5 0 1 1-13 0c0-.17.01-.33.02-.5l-8.74-4.48C4.97 39 14.05 47 25 47c12.15 0 22-9.85 22-22S37.15 3 25 3zm6.5 11c-3.58 0-6.5 2.92-6.5 6.5s2.92 6.5 6.5 6.5 6.5-2.92 6.5-6.5-2.92-6.5-6.5-6.5zm0 2c2.49 0 4.5 2.01 4.5 4.5S33.99 25 31.5 25 27 22.99 27 20.5s2.01-4.5 4.5-4.5zm-13 13c-.79 0-1.54.2-2.18.57l3.32 1.7a2.516 2.516 0 0 1 1.09 3.37 2.518 2.518 0 0 1-3.37 1.09l-3.33-1.71A4.503 4.503 0 0 0 18.5 38c2.49 0 4.5-2.01 4.5-4.5S20.99 29 18.5 29z" transform="scale(5.12)" fill="#fff" stroke-miterlimit="10" font-family="none" font-weight="none" font-size="none" text-anchor="none" style="mix-blend-mode:normal"/></svg><svg fill="none" viewBox="0 0 73 74" id="youtube" xmlns="http://www.w3.org/2000/svg"><path fill-rule="evenodd" clip-rule="evenodd" d="M36.5.99C16.342.99 0 17.242 0 37.292c0 20.05 16.342 36.303 36.5 36.303S73 57.342 73 37.293C73 17.243 56.658.989 36.5.989Zm15.21 23.822c1.676.457 2.995 1.805 3.443 3.515.814 3.101.814 9.57.814 9.57s0 6.47-.814 9.57c-.448 1.712-1.767 3.059-3.442 3.516-3.036.83-15.211.83-15.211.83s-12.175 0-15.211-.83c-1.675-.457-2.995-1.804-3.442-3.515-.814-3.101-.814-9.57-.814-9.57s0-6.47.814-9.57c.447-1.711 1.767-3.058 3.442-3.516 3.036-.83 15.211-.83 15.211-.83s12.175 0 15.21.83Z" fill="#fff"/><path d="M32.85 44.553v-12.1l9.733 6.05-9.733 6.05Z" fill="#fff"/></svg></svg>