<svg width="73" height="73" viewBox="0 0 73 73" fill="none" xmlns="http://www.w3.org/2000/svg">
<g clip-path="url(#clip0_19_202)">
<path d="M73 36.3033C73 16.2514 56.6605 0 36.5 0C16.3395 0 0 16.2514 0 36.3033C0 54.4266 13.3453 69.4443 30.7969 72.167V46.7973H21.5293V36.3033H30.7969V28.3053C30.7969 19.2081 36.2434 14.181 44.5842 14.181C48.5764 14.181 52.7539 14.89 52.7539 14.89V23.8241H48.1486C43.6147 23.8241 42.2031 26.6248 42.2031 29.4965V36.3033H52.3262L50.7079 46.7973H42.2031V72.167C59.6547 69.4443 73 54.4266 73 36.3033Z" fill="white"/>
</g>
<defs>
<clipPath id="clip0_19_202">
<rect width="73" height="72.6067" fill="white"/>
</clipPath>
</defs>
</svg>
