<svg width="73" height="74" viewBox="0 0 73 74" fill="none" xmlns="http://www.w3.org/2000/svg">
<path fill-rule="evenodd" clip-rule="evenodd" d="M36.5 0.989258C16.3416 0.989258 0 17.2428 0 37.2926C0 57.3424 16.3416 73.5959 36.5 73.5959C56.6584 73.5959 73 57.3424 73 37.2926C73 17.2428 56.6584 0.989258 36.5 0.989258ZM51.7108 24.8123C53.386 25.2695 54.7053 26.6167 55.153 28.3275C55.9667 31.4281 55.9667 37.8976 55.9667 37.8976C55.9667 37.8976 55.9667 44.3669 55.153 47.4678C54.7053 49.1786 53.386 50.5258 51.7108 50.9832C48.6749 51.8139 36.5 51.8139 36.5 51.8139C36.5 51.8139 24.3251 51.8139 21.289 50.9832C19.6138 50.5258 18.2945 49.1786 17.8467 47.4678C17.0333 44.3669 17.0333 37.8976 17.0333 37.8976C17.0333 37.8976 17.0333 31.4281 17.8467 28.3275C18.2945 26.6167 19.6138 25.2695 21.289 24.8123C24.3251 23.9814 36.5 23.9814 36.5 23.9814C36.5 23.9814 48.6749 23.9814 51.7108 24.8123Z" fill="white"/>
<path d="M32.85 44.5533V32.4521L42.5833 38.5029L32.85 44.5533Z" fill="white"/>
</svg>
