<svg width="560" height="118" viewBox="0 0 560 118" fill="none" xmlns="http://www.w3.org/2000/svg">
<path fill-rule="evenodd" clip-rule="evenodd" d="M43.9744 68.4168C45.5698 66.8249 46.3675 64.8105 46.3675 62.3734V8.58008C46.3675 6.14286 45.5698 4.15325 43.9744 2.61133C42.4288 1.0694 40.4345 0.298437 37.9915 0.298437H0V92.6093C3.43334 91.646 6.89871 90.6993 10.3953 89.7712V70.7297H37.9915C40.4345 70.7297 42.4288 69.9585 43.9744 68.4168ZM10.3953 102.131C6.8968 103.076 3.43139 104.038 0 105.018V117.062H10.3953V102.131ZM555.219 91.8191L538.97 0H528.724L514.139 81.6238C528.271 84.7545 541.979 88.159 555.219 91.8191ZM473.686 73.6198C472.181 69.4458 470.673 65.2742 469.165 61.1051C469.812 61.1051 470.859 61.1546 472.306 61.2543C473.752 61.3038 474.848 61.3289 475.596 61.3289C483.175 61.3289 486.964 58.5186 486.964 52.898V8.58008C486.964 6.14286 486.191 4.15325 484.645 2.61133C483.1 1.0694 481.105 0.298437 478.662 0.298437H439.474V68.2365C442.958 68.7242 446.423 69.2273 449.87 69.746V9.47539H476.568V52.4504H458.021L456.6 54.5394L462.588 71.7414C466.31 72.3496 470.01 72.9757 473.686 73.6198ZM467.06 84.5909C470.851 85.2361 474.617 85.9005 478.356 86.5833C482.006 96.7284 485.647 106.888 489.282 117.062H478.363L467.06 84.5909ZM449.87 81.8196C446.424 81.2956 442.958 80.7858 439.474 80.2922V117.062H449.87V81.8196ZM412.749 64.8397C412.101 63.5266 411.103 62.4558 409.754 61.6273L400.93 55.957L409.156 51.0328C411.948 48.9437 413.344 46.3573 413.344 43.2734V8.58008C413.344 6.14286 412.571 4.15325 411.026 2.61133C409.48 1.0694 407.486 0.298437 405.043 0.298437H366.752V60.5398C370.23 60.7935 373.695 61.0627 377.147 61.3462V60.6574H392.628L396.364 63.0891C401.863 63.6352 407.325 64.219 412.749 64.8397ZM403.173 75.7912C406.679 76.1654 410.169 76.5552 413.643 76.9599V108.78C413.643 111.217 412.87 113.207 411.325 114.749C409.779 116.291 407.785 117.062 405.342 117.062H366.752V72.509C370.231 72.7662 373.696 73.0378 377.147 73.3243V107.885H403.173V75.7912ZM340.397 58.9129V0.298437H330.75L316.334 57.94C319.297 58.0302 322.253 58.131 325.2 58.2423L331.647 33.9473C330.949 39.0207 330.6 42.0797 330.6 43.1242V58.4585C333.876 58.5969 337.142 58.7485 340.397 58.9129ZM330.6 70.4068C333.876 70.5464 337.142 70.6998 340.397 70.8658V117.062H330.6V70.4068ZM322.061 70.0725C319.171 69.9699 316.274 69.8779 313.368 69.7956L311.754 76.2508C311.555 77.743 311.455 78.8621 311.455 79.6082C311.355 77.768 311.256 76.6489 311.156 76.2508L309.516 69.6929C306.584 69.6195 303.644 69.5562 300.698 69.5043L310.408 106.095H312.502L322.061 70.0725ZM297.516 57.513L291.263 33.9473C291.961 39.0704 292.31 42.1294 292.31 43.1242V57.4459C289.052 57.4109 285.786 57.3888 282.513 57.3795V0.298437H292.16L306.511 57.6809C303.52 57.6141 300.522 57.558 297.516 57.513ZM282.513 69.3169C285.787 69.3264 289.052 69.3485 292.31 69.3843V117.062H282.513V69.3169ZM256.083 57.5879V0.298437H245.688V57.8258C249.143 57.732 252.608 57.6526 256.083 57.5879ZM245.688 69.7675C249.143 69.6732 252.608 69.5926 256.083 69.5276V108.78C256.083 111.217 255.286 113.207 253.69 114.749C252.145 116.291 250.15 117.062 247.707 117.062H215.848C213.405 117.062 211.411 116.291 209.865 114.749C208.32 113.207 207.547 111.217 207.547 108.78V71.425C211 71.2191 214.465 71.0275 217.942 70.8514V107.885H245.688V69.7675ZM217.942 58.8986V0.298437H207.547V59.4668C211 59.2628 214.466 59.0734 217.942 58.8986ZM181.118 61.3289V0.298437H171.321V62.1747C174.574 61.8798 177.84 61.5975 181.118 61.3289ZM167.623 74.5067L171.321 84.6816V74.1617C174.573 73.8633 177.839 73.5786 181.118 73.307V117.062H173.938L158.766 75.3841C161.708 75.0809 164.66 74.7884 167.623 74.5067ZM163.413 62.9196L140.658 0.298437H132.88V66.3343C136.131 65.9242 139.398 65.5273 142.677 65.1435V31.1867L154.557 63.8209C157.498 63.5099 160.45 63.2091 163.413 62.9196ZM142.677 77.164C139.397 77.5514 136.131 77.9531 132.88 78.3679V117.062H142.677V77.164ZM80.8739 86.3696V107.885H108.919V117.062H70.4786V88.3148C73.9206 87.6505 77.3859 87.0017 80.8739 86.3696ZM80.8739 74.2387C77.3871 74.863 73.9218 75.5029 70.4786 76.1589V0.298437H108.47V9.47539H80.8739V53.0473H106.002V62.3734H80.8739V74.2387ZM512.036 93.3865C515.145 94.077 518.232 94.7808 521.297 95.4976L517.88 117.062H507.859V116.764L512.036 93.3865ZM546.97 101.945C550.524 102.901 554.043 103.875 557.528 104.867L559.686 117.062H549.365L546.97 101.945ZM35.9722 9.47539V61.4781H10.3953V9.47539H35.9722ZM402.874 9.47539V44.6164L392.479 51.6297H377.147V9.47539H402.874ZM533.66 18.6523L543.906 81.9211H523.34L533.66 18.6523Z" fill="white"/>
</svg>
