<svg width="338" height="35" viewBox="0 0 338 35" fill="none" xmlns="http://www.w3.org/2000/svg">
<path d="M0.0753098 34.3309V2.81585H8.2695C10.3372 2.81585 12.1243 3.17219 13.6302 3.88546C15.1361 4.59872 16.298 5.61699 17.1146 6.94145C17.9445 8.26592 18.3591 9.85719 18.3591 11.7165C18.3591 13.5626 17.9445 15.1861 17.1146 16.587C16.298 17.9747 15.1361 19.0574 13.6302 19.834C12.1243 20.598 10.3372 20.9799 8.2695 20.9799H2.98539V34.3309H0.0753098ZM2.98539 18.5352H7.58026C9.16274 18.5352 10.5352 18.2612 11.6965 17.7139C12.8709 17.1665 13.7768 16.3894 14.4151 15.3837C15.0535 14.3648 15.3724 13.168 15.3724 11.7928C15.3724 10.392 15.0535 9.20183 14.4151 8.22116C13.7768 7.22796 12.8709 6.47649 11.6965 5.96735C10.5352 5.44509 9.16274 5.18425 7.58026 5.18425H2.98539V18.5352ZM26.1967 34.3309V14.7725H28.9919V17.6566C29.6171 16.5106 30.4212 15.6445 31.4042 15.059C32.3998 14.4603 33.5485 14.1613 34.8503 14.1613C35.4247 14.1613 36.0051 14.2251 36.5926 14.3523C37.1921 14.4794 37.709 14.6453 38.1433 14.8488L36.9946 17.1981C36.6117 17.0071 36.1714 16.8609 35.6736 16.7589C35.1884 16.6568 34.7223 16.606 34.276 16.606C33.3696 16.606 32.5146 16.8352 31.7105 17.2936C30.9064 17.752 30.2489 18.3507 29.7386 19.089C29.2408 19.8148 28.9919 20.5914 28.9919 21.4193V34.3309H26.1967ZM45.1804 34.3309V14.7725H47.9757V34.3309H45.1804ZM46.5972 10.857C46.2526 10.857 45.9397 10.774 45.6591 10.6087C45.391 10.4433 45.1739 10.2201 45.0081 9.94015C44.8424 9.66021 44.7592 9.35462 44.7592 9.02336C44.7592 8.69209 44.8424 8.39306 45.0081 8.12566C45.1739 7.84572 45.391 7.6225 45.6591 7.45716C45.9397 7.29183 46.2526 7.20885 46.5972 7.20885C46.9292 7.20885 47.229 7.29183 47.497 7.45716C47.7651 7.6225 47.9822 7.83915 48.148 8.10655C48.3269 8.37395 48.416 8.67956 48.416 9.02336C48.416 9.35462 48.3269 9.66021 48.148 9.94015C47.9822 10.2201 47.7651 10.4433 47.497 10.6087C47.229 10.774 46.9292 10.857 46.5972 10.857ZM63.2374 34.942C61.6167 34.942 60.1874 34.5535 58.9489 33.7769C57.711 32.9873 56.7472 31.8735 56.058 30.4344L57.5513 28.8301C58.1639 30.0781 58.9621 31.0522 59.9445 31.7523C60.9274 32.4399 62.0187 32.7837 63.2183 32.7837C64.0224 32.7837 64.7565 32.6184 65.42 32.2871C66.0967 31.9559 66.6328 31.485 67.0282 30.8738C67.4369 30.25 67.6409 29.5111 67.6409 28.6582C67.6409 27.8816 67.4494 27.2704 67.0671 26.8246C66.6968 26.3787 66.1475 25.9967 65.42 25.6786C64.7057 25.3473 63.8118 24.9784 62.7397 24.5708C61.9104 24.2395 61.1063 23.8641 60.3274 23.4439C59.549 23.0237 58.9046 22.4954 58.3937 21.8586C57.8959 21.2092 57.647 20.3879 57.647 19.3947C57.647 18.3889 57.915 17.4972 58.4511 16.7207C58.9872 15.931 59.7279 15.3138 60.672 14.868C61.6167 14.4096 62.6888 14.1803 63.8884 14.1803C64.9862 14.1803 66.0135 14.4161 66.9714 14.8871C67.9412 15.358 68.8087 16.0265 69.5745 16.8926L68.2924 18.5161C67.118 16.9755 65.6563 16.2049 63.9075 16.2049C62.8354 16.2049 61.9613 16.4849 61.2846 17.0454C60.6211 17.6058 60.2891 18.3376 60.2891 19.2419C60.2891 19.8913 60.4997 20.4326 60.9209 20.8654C61.3421 21.2981 61.8913 21.6675 62.5674 21.9731C63.2566 22.2787 63.9973 22.5844 64.7882 22.89C65.9369 23.3227 66.9325 23.756 67.7755 24.1888C68.6304 24.6215 69.2939 25.1754 69.766 25.8504C70.2386 26.5124 70.4744 27.4167 70.4744 28.5627C70.4744 29.874 70.168 31.0075 69.556 31.9625C68.9427 32.9175 68.0878 33.6558 66.9899 34.178C65.9052 34.6872 64.6542 34.942 63.2374 34.942ZM88.38 34.942C86.338 34.942 84.4935 34.5028 82.847 33.6242C81.2131 32.7456 79.9178 31.5232 78.9605 29.957C78.0033 28.3908 77.5246 26.5888 77.5246 24.5517C77.5246 22.5014 78.0033 20.7 78.9605 19.1464C79.9178 17.5802 81.2131 16.3577 82.847 15.4791C84.4809 14.6005 86.3249 14.1613 88.38 14.1613C90.422 14.1613 92.2599 14.6005 93.8939 15.4791C95.5404 16.3577 96.8422 17.5802 97.7995 19.1464C98.7568 20.7 99.2354 22.5014 99.2354 24.5517C99.2354 26.5888 98.7568 28.3908 97.7995 29.957C96.8422 31.5232 95.5404 32.7456 93.8939 33.6242C92.2599 34.5028 90.422 34.942 88.38 34.942ZM88.38 32.4591C89.9116 32.4591 91.2775 32.1218 92.4771 31.4468C93.6767 30.7717 94.6214 29.8424 95.3106 28.6582C95.9998 27.4614 96.3445 26.0922 96.3445 24.5517C96.3445 23.0111 95.9998 21.6485 95.3106 20.4643C94.6214 19.2675 93.6767 18.3316 92.4771 17.6566C91.2775 16.9815 89.9116 16.6443 88.38 16.6443C86.8484 16.6443 85.4825 16.9815 84.2829 17.6566C83.0834 18.3316 82.1386 19.2675 81.4494 20.4643C80.7602 21.6485 80.4156 23.0111 80.4156 24.5517C80.4156 26.0797 80.7602 27.4423 81.4494 28.639C82.1386 29.8358 83.0834 30.7717 84.2829 31.4468C85.4825 32.1218 86.8484 32.4591 88.38 32.4591ZM107.818 34.3309V14.7725H110.614V17.4465C111.15 16.5297 111.979 15.7531 113.103 15.1163C114.226 14.4794 115.597 14.1613 117.219 14.1613C118.737 14.1613 120.046 14.4734 121.144 15.0972C122.241 15.7209 123.083 16.6317 123.671 17.8284C124.258 19.0126 124.551 20.4452 124.551 22.126V34.3309H121.756V22.6608C121.756 20.6362 121.284 19.0956 120.34 18.0386C119.395 16.969 118.061 16.4341 116.338 16.4341C115.138 16.4341 114.111 16.6759 113.256 17.16C112.413 17.6309 111.762 18.2612 111.303 19.0508C110.843 19.8274 110.614 20.6744 110.614 21.5912V34.3309H107.818ZM143.527 34.942C141.472 34.942 139.634 34.4902 138.013 33.586C136.405 32.6817 135.141 31.4533 134.222 29.8996C133.303 28.3334 132.844 26.5762 132.844 24.628C132.844 23.1639 133.106 21.8013 133.629 20.5407C134.165 19.2675 134.905 18.1531 135.85 17.1981C136.794 16.2431 137.892 15.4983 139.143 14.9635C140.394 14.4287 141.727 14.1613 143.144 14.1613C145.084 14.1613 146.807 14.588 148.313 15.4409C149.832 16.2813 151.032 17.4465 151.912 18.9363C152.806 20.4261 153.278 22.145 153.329 24.0932C153.329 24.246 153.323 24.3732 153.31 24.4753C153.31 24.5642 153.298 24.6788 153.272 24.8191H135.62C135.62 26.3471 135.964 27.6966 136.654 28.8682C137.343 30.0399 138.288 30.9627 139.487 31.6378C140.7 32.2997 142.085 32.631 143.642 32.631C145.123 32.631 146.45 32.3254 147.624 31.7142C148.811 31.0904 149.801 30.1987 150.591 29.0401L152.659 30.148C151.728 31.6634 150.457 32.841 148.849 33.6814C147.254 34.5218 145.48 34.942 143.527 34.942ZM135.773 22.7181H150.535C150.368 21.4957 149.941 20.4195 149.251 19.4901C148.562 18.5477 147.688 17.8094 146.628 17.2746C145.582 16.7398 144.433 16.4723 143.182 16.4723C141.894 16.4723 140.719 16.7398 139.659 17.2746C138.601 17.7968 137.726 18.5286 137.037 19.4711C136.361 20.4004 135.939 21.4831 135.773 22.7181ZM161.754 34.3309V14.7725H164.549V17.6566C165.175 16.5106 165.979 15.6445 166.961 15.059C167.957 14.4603 169.106 14.1613 170.407 14.1613C170.982 14.1613 171.563 14.2251 172.15 14.3523C172.75 14.4794 173.267 14.6453 173.7 14.8488L172.552 17.1981C172.169 17.0071 171.728 16.8609 171.231 16.7589C170.746 16.6568 170.28 16.606 169.833 16.606C168.927 16.606 168.072 16.8352 167.268 17.2936C166.464 17.752 165.807 18.3507 165.296 19.089C164.798 19.8148 164.549 20.5914 164.549 21.4193V34.3309H161.754ZM201.868 34.942C199.826 34.942 197.981 34.5028 196.335 33.6242C194.702 32.7456 193.406 31.5232 192.448 29.957C191.491 28.3908 191.013 26.5888 191.013 24.5517C191.013 22.5014 191.491 20.7 192.448 19.1464C193.406 17.5802 194.702 16.3577 196.335 15.4791C197.969 14.6005 199.813 14.1613 201.868 14.1613C203.911 14.1613 205.748 14.6005 207.382 15.4791C209.028 16.3577 210.33 17.5802 211.287 19.1464C212.245 20.7 212.723 22.5014 212.723 24.5517C212.723 26.5888 212.245 28.3908 211.287 29.957C210.33 31.5232 209.028 32.7456 207.382 33.6242C205.748 34.5028 203.911 34.942 201.868 34.942ZM201.868 32.4591C203.4 32.4591 204.765 32.1218 205.965 31.4468C207.165 30.7717 208.109 29.8424 208.799 28.6582C209.488 27.4614 209.832 26.0922 209.832 24.5517C209.832 23.0111 209.488 21.6485 208.799 20.4643C208.109 19.2675 207.165 18.3316 205.965 17.6566C204.765 16.9815 203.4 16.6443 201.868 16.6443C200.336 16.6443 198.971 16.9815 197.771 17.6566C196.571 18.3316 195.627 19.2675 194.937 20.4643C194.248 21.6485 193.904 23.0111 193.904 24.5517C193.904 26.0797 194.248 27.4423 194.937 28.639C195.627 29.8358 196.571 30.7717 197.771 31.4468C198.971 32.1218 200.336 32.4591 201.868 32.4591ZM221.597 34.3309V16.8735H219.625V14.7725H221.597V7.76276C221.597 6.29862 221.807 5.05712 222.228 4.03825C222.65 3.01939 223.262 2.24285 224.066 1.70805C224.87 1.17325 225.859 0.905853 227.034 0.905853C227.761 0.905853 228.437 1.00791 229.063 1.21145C229.688 1.40245 230.237 1.68239 230.71 2.05185L229.733 4.03825C229.146 3.57985 228.406 3.35065 227.512 3.35065C226.798 3.35065 226.211 3.52912 225.751 3.88546C225.292 4.22926 224.947 4.72586 224.717 5.37526C224.5 6.02466 224.392 6.79521 224.392 7.68634V14.7725H229.389V16.8735H224.392V34.3309H221.597ZM249.764 34.3309V2.81585H265.75V5.37526H251.525L252.674 4.51576V18.9745L251.525 17.2555H264.87V19.8148H251.525L252.674 18.0958V34.3309H249.764ZM281.597 34.942C279.759 34.942 278.1 34.4962 276.62 33.6051C275.151 32.7008 273.984 31.4658 273.116 29.8996C272.26 28.3334 271.833 26.5446 271.833 24.5326C271.833 22.5462 272.254 20.7764 273.097 19.2227C273.952 17.6565 275.113 16.4216 276.581 15.5174C278.061 14.6131 279.734 14.1613 281.597 14.1613C283.371 14.1613 284.98 14.5749 286.422 15.4028C287.864 16.2306 288.962 17.3766 289.715 18.8408V14.7725H292.51V34.3309H289.715V30.2053C288.873 31.6825 287.743 32.841 286.326 33.6814C284.91 34.5218 283.333 34.942 281.597 34.942ZM282.287 32.5163C283.754 32.5163 285.049 32.1791 286.173 31.5041C287.309 30.8165 288.203 29.874 288.853 28.6773C289.504 27.4674 289.83 26.0922 289.83 24.5517C289.83 22.998 289.504 21.6228 288.853 20.4261C288.215 19.2293 287.328 18.2934 286.192 17.6184C285.056 16.9308 283.754 16.587 282.287 16.587C280.818 16.587 279.517 16.9308 278.381 17.6184C277.245 18.2934 276.352 19.2293 275.701 20.4261C275.05 21.6228 274.724 22.998 274.724 24.5517C274.724 26.0922 275.05 27.4674 275.701 28.6773C276.352 29.874 277.245 30.8165 278.381 31.5041C279.517 32.1791 280.818 32.5163 282.287 32.5163ZM307.287 34.942C305.819 34.942 304.676 34.452 303.86 33.4714C303.056 32.4782 302.654 31.0839 302.654 29.2885V16.8735H300.662V14.7725H302.654V7.45716H305.449V14.7725H310.331V16.8735H305.449V29.1356C305.449 30.2178 305.659 31.0457 306.081 31.6187C306.502 32.1917 307.102 32.4782 307.88 32.4782C308.634 32.4782 309.297 32.2681 309.871 31.8479L310.58 34.0635C310.146 34.3309 309.635 34.541 309.048 34.6938C308.461 34.8591 307.874 34.942 307.287 34.942ZM327.793 34.942C325.738 34.942 323.9 34.4902 322.279 33.586C320.671 32.6817 319.408 31.4533 318.489 29.8996C317.57 28.3334 317.11 26.5762 317.11 24.628C317.11 23.1639 317.372 21.8013 317.895 20.5407C318.431 19.2675 319.171 18.1531 320.116 17.1981C321.061 16.2431 322.158 15.4983 323.409 14.9635C324.66 14.4287 325.993 14.1613 327.41 14.1613C329.35 14.1613 331.074 14.588 332.579 15.4409C334.099 16.2813 335.298 17.4465 336.179 18.9363C337.072 20.4261 337.545 22.145 337.596 24.0932C337.596 24.246 337.589 24.3732 337.576 24.4753C337.576 24.5642 337.564 24.6788 337.538 24.8191H319.886C319.886 26.3471 320.231 27.6966 320.92 28.8682C321.609 30.0399 322.554 30.9627 323.754 31.6378C324.966 32.2997 326.351 32.631 327.908 32.631C329.389 32.631 330.716 32.3254 331.89 31.7142C333.077 31.0904 334.066 30.1987 334.858 29.0401L336.925 30.148C335.994 31.6634 334.724 32.841 333.116 33.6814C331.52 34.5218 329.746 34.942 327.793 34.942ZM320.039 22.7181H334.8C334.635 21.4957 334.207 20.4195 333.518 19.4901C332.828 18.5477 331.954 17.8094 330.895 17.2746C329.848 16.7398 328.7 16.4723 327.449 16.4723C326.159 16.4723 324.985 16.7398 323.926 17.2746C322.866 17.7968 321.992 18.5286 321.303 19.4711C320.626 20.4004 320.205 21.4831 320.039 22.7181Z" fill="#DB8B51"/>
</svg>
